2026-04-20 22:52:31 [INFO] [request_id=ed132f24-c5f7-4829-b80b-68e13433b8ac] app.ffmpeg: No TTS audio for task e7ccec9b-39fb-4e99-9bfb-79b19e13381d, using A-roll audio track
2026-04-20 22:52:31 [INFO] [request_id=ed132f24-c5f7-4829-b80b-68e13433b8ac] app.ffmpeg: FFmpeg command for task e7ccec9b-39fb-4e99-9bfb-79b19e13381d: ffmpeg -y -i storage/assets/6e561a10-e090-4b10-88ec-a70a379f21fc/original.mp4 -i storage/assets/1ab23148-7a9f-4ddf-952b-1306bbd66dbf/original.mp4 -filter_complex [0:v]scale=1080:1920:force_original_aspect_ratio=decrease,pad=1080:1920:(ow-iw)/2:(oh-ih)/2,setsar=1,trim=0:19.6166665,setpts=PTS-STARTPTS[v0];[1:v]scale=1080:1920:force_original_aspect_ratio=decrease,pad=1080:1920:(ow-iw)/2:(oh-ih)/2,setsar=1,trim=0:19.6166665,setpts=PTS-STARTPTS[v1];[v0][v1]concat=n=2:v=1:a=0[outv];[0:a]atrim=0:19.6166665,asetpts=PTS-STARTPTS[a0];[a0]acopy[outa] -map [outv] -map [outa] -c:v libx264 -b:v 5000k -c:a aac -b:a 128k -shortest -movflags +faststart storage/tasks/e7ccec9b-39fb-4e99-9bfb-79b19e13381d/output.mp4

============================================================
Task: e7ccec9b-39fb-4e99-9bfb-79b19e13381d
Timestamp: 2026-04-20T14:52:42.760630+00:00
STDERR:
=  521 fps= 54 q=28.0 size=   10496KiB time=00:00:17.30 bitrate=4970.2kbits/s speed=1.81x elapsed=0:00:09.57    
frame=  543 fps= 54 q=28.0 size=   11264KiB time=N/A bitrate=N/A speed=N/A elapsed=0:00:10.07    
frame=  573 fps= 54 q=28.0 size=   11776KiB time=N/A bitrate=N/A speed=N/A elapsed=0:00:10.58    
[mp4 @ 0x12b704860] Starting second pass: moving the moov atom to the beginning of the file
[out#0/mp4 @ 0x12b7155c0] video:12095KiB audio:307KiB subtitle:0KiB other streams:0KiB global headers:0KiB muxing overhead: 0.177236%
frame=  588 fps= 55 q=-1.0 Lsize=   12424KiB time=00:00:19.53 bitrate=5210.4kbits/s speed=1.82x elapsed=0:00:10.73    
[libx264 @ 0x12b7125f0] frame I:5     Avg QP:18.34  size: 77757
[libx264 @ 0x12b7125f0] frame P:170   Avg QP:22.08  size: 37277
[libx264 @ 0x12b7125f0] frame B:413   Avg QP:24.45  size: 13701
[libx264 @ 0x12b7125f0] consecutive B-frames:  4.1%  3.1% 11.2% 81.6%
[libx264 @ 0x12b7125f0] mb I  I16..4: 16.5% 70.8% 12.7%
[libx264 @ 0x12b7125f0] mb P  I16..4: 10.8% 28.8%  2.2%  P16..4: 26.9%  9.5%  3.0%  0.0%  0.0%    skip:18.8%
[libx264 @ 0x12b7125f0] mb B  I16..4:  1.9%  3.9%  0.2%  B16..8: 36.2%  6.8%  0.9%  direct: 2.3%  skip:47.8%  L0:49.8% L1:47.4% BI: 2.8%
[libx264 @ 0x12b7125f0] final ratefactor: 21.91
[libx264 @ 0x12b7125f0] 8x8 transform intra:68.1% inter:84.8%
[libx264 @ 0x12b7125f0] coded y,uvDC,uvAC intra: 40.8% 36.3% 6.5% inter: 10.6% 13.3% 0.1%
[libx264 @ 0x12b7125f0] i16 v,h,dc,p: 30% 17%  5% 48%
[libx264 @ 0x12b7125f0] i8 v,h,dc,ddl,ddr,vr,hd,vl,hu: 38% 15% 17%  3%  6%  8%  5%  5%  3%
[libx264 @ 0x12b7125f0] i4 v,h,dc,ddl,ddr,vr,hd,vl,hu: 40% 16% 15%  3%  7%  8%  5%  4%  2%
[libx264 @ 0x12b7125f0] i8c dc,h,v,p: 57% 18% 22%  3%
[libx264 @ 0x12b7125f0] Weighted P-Frames: Y:0.6% UV:0.0%
[libx264 @ 0x12b7125f0] ref P L0: 73.8%  9.1% 13.2%  3.9%  0.0%
[libx264 @ 0x12b7125f0] ref B L0: 94.2%  4.8%  0.9%
[libx264 @ 0x12b7125f0] ref B L1: 98.2%  1.8%
[libx264 @ 0x12b7125f0] kb/s:5054.81
[aac @ 0x12b7138d0] Qavg: 1236.460

============================================================
2026-04-20 22:52:42 [INFO] [request_id=ed132f24-c5f7-4829-b80b-68e13433b8ac] app.ffmpeg: Video composition complete for task e7ccec9b-39fb-4e99-9bfb-79b19e13381d: resolution=1080x1920, duration=19.62s, size=12721964 bytes
2026-04-20 22:58:40 [INFO] [request_id=9ae58c0b-8761-4cdf-9f58-1952793a131c] app.ffmpeg: No TTS audio for task ee18972a-4d02-43a2-af0c-7cad30ff2ab1, using A-roll audio track
2026-04-20 22:58:40 [INFO] [request_id=9ae58c0b-8761-4cdf-9f58-1952793a131c] app.ffmpeg: FFmpeg command for task ee18972a-4d02-43a2-af0c-7cad30ff2ab1: ffmpeg -y -i storage/assets/6e561a10-e090-4b10-88ec-a70a379f21fc/original.mp4 -i storage/assets/1ab23148-7a9f-4ddf-952b-1306bbd66dbf/original.mp4 -filter_complex [0:v]scale=1080:1920:force_original_aspect_ratio=decrease,pad=1080:1920:(ow-iw)/2:(oh-ih)/2,setsar=1,trim=0:19.6166665,setpts=PTS-STARTPTS[v0];[1:v]scale=1080:1920:force_original_aspect_ratio=decrease,pad=1080:1920:(ow-iw)/2:(oh-ih)/2,setsar=1,trim=0:19.6166665,setpts=PTS-STARTPTS[v1];[v0][v1]concat=n=2:v=1:a=0[outv];[0:a]atrim=0:19.6166665,asetpts=PTS-STARTPTS[a0];[a0]acopy[outa] -map [outv] -map [outa] -c:v libx264 -b:v 5000k -c:a aac -b:a 128k -shortest -movflags +faststart storage/tasks/ee18972a-4d02-43a2-af0c-7cad30ff2ab1/output.mp4

============================================================
Task: ee18972a-4d02-43a2-af0c-7cad30ff2ab1
Timestamp: 2026-04-20T14:58:51.723202+00:00
STDERR:
=  509 fps= 53 q=27.0 size=   10240KiB time=00:00:16.90 bitrate=4963.7kbits/s speed=1.76x elapsed=0:00:09.58    
frame=  531 fps= 53 q=28.0 size=   10752KiB time=N/A bitrate=N/A speed=N/A elapsed=0:00:10.09    
frame=  558 fps= 53 q=28.0 size=   11520KiB time=N/A bitrate=N/A speed=N/A elapsed=0:00:10.59    
[mp4 @ 0x13df13dd0] Starting second pass: moving the moov atom to the beginning of the file
[out#0/mp4 @ 0x13df15940] video:12095KiB audio:307KiB subtitle:0KiB other streams:0KiB global headers:0KiB muxing overhead: 0.177236%
frame=  588 fps= 53 q=-1.0 Lsize=   12424KiB time=00:00:19.53 bitrate=5210.4kbits/s speed=1.77x elapsed=0:00:11.02    
[libx264 @ 0x13df11c70] frame I:5     Avg QP:18.34  size: 77757
[libx264 @ 0x13df11c70] frame P:170   Avg QP:22.08  size: 37277
[libx264 @ 0x13df11c70] frame B:413   Avg QP:24.45  size: 13701
[libx264 @ 0x13df11c70] consecutive B-frames:  4.1%  3.1% 11.2% 81.6%
[libx264 @ 0x13df11c70] mb I  I16..4: 16.5% 70.8% 12.7%
[libx264 @ 0x13df11c70] mb P  I16..4: 10.8% 28.8%  2.2%  P16..4: 26.9%  9.5%  3.0%  0.0%  0.0%    skip:18.8%
[libx264 @ 0x13df11c70] mb B  I16..4:  1.9%  3.9%  0.2%  B16..8: 36.2%  6.8%  0.9%  direct: 2.3%  skip:47.8%  L0:49.8% L1:47.4% BI: 2.8%
[libx264 @ 0x13df11c70] final ratefactor: 21.91
[libx264 @ 0x13df11c70] 8x8 transform intra:68.1% inter:84.8%
[libx264 @ 0x13df11c70] coded y,uvDC,uvAC intra: 40.8% 36.3% 6.5% inter: 10.6% 13.3% 0.1%
[libx264 @ 0x13df11c70] i16 v,h,dc,p: 30% 17%  5% 48%
[libx264 @ 0x13df11c70] i8 v,h,dc,ddl,ddr,vr,hd,vl,hu: 38% 15% 17%  3%  6%  8%  5%  5%  3%
[libx264 @ 0x13df11c70] i4 v,h,dc,ddl,ddr,vr,hd,vl,hu: 40% 16% 15%  3%  7%  8%  5%  4%  2%
[libx264 @ 0x13df11c70] i8c dc,h,v,p: 57% 18% 22%  3%
[libx264 @ 0x13df11c70] Weighted P-Frames: Y:0.6% UV:0.0%
[libx264 @ 0x13df11c70] ref P L0: 73.8%  9.1% 13.2%  3.9%  0.0%
[libx264 @ 0x13df11c70] ref B L0: 94.2%  4.8%  0.9%
[libx264 @ 0x13df11c70] ref B L1: 98.2%  1.8%
[libx264 @ 0x13df11c70] kb/s:5054.81
[aac @ 0x13df0cbf0] Qavg: 1236.460

============================================================
2026-04-20 22:58:51 [INFO] [request_id=9ae58c0b-8761-4cdf-9f58-1952793a131c] app.ffmpeg: Video composition complete for task ee18972a-4d02-43a2-af0c-7cad30ff2ab1: resolution=1080x1920, duration=19.62s, size=12721964 bytes
